<svg width="139" height="71" viewBox="0 0 139 71" fill="none" xmlns="http://www.w3.org/2000/svg">
<path d="M57.8264 56.6347C57.1572 56.6347 56.4838 56.6347 55.8062 56.6347C54.8237 56.6347 53.9005 56.2487 53.2059 55.5444C51.605 53.9239 48.2128 50.4833 45.4896 47.7173C43.2154 45.4094 41.2546 43.4155 41.0005 43.1652C40.056 42.2192 39.9544 40.7726 40.7463 39.6398C41.5256 38.5326 42.7834 38.4393 44.109 38.4393H44.1175C44.1175 38.4393 52.1302 38.4393 53.5235 38.4393C54.667 38.4393 55.0439 38.3078 55.6453 37.6926C55.9206 37.4126 56.0858 36.8993 56.0858 36.3181C56.0858 35.8472 55.8486 35.2702 55.531 34.9733C54.9889 34.4642 54.4256 34.4387 53.4007 34.4387C52.1598 34.4387 41.0936 34.4387 37.0661 34.4387H35.6389C35.5203 34.4387 35.1645 34.4387 34.9274 34.1757C34.686 33.9127 34.6944 33.5436 34.7241 33.1575V33.1363C34.7326 33.1024 34.8384 32.2963 34.9697 31.8212C35.4525 30.0946 36.4181 28.7455 37.9216 27.7061C39.2683 26.7728 40.5007 26.4419 42.6267 26.4419C42.8469 26.4419 43.1476 26.4419 43.5118 26.4419C45.1 26.4419 47.8951 26.4419 50.5463 26.4419C51.7448 26.4419 52.9095 26.4419 53.9216 26.4419C57.9831 26.4419 60.4648 27.4473 62.4807 29.9079C65.2081 33.2381 65.513 37.2811 63.3065 40.9932C61.676 43.7422 59.1604 44.8452 57.8094 45.2567C56.7041 45.5919 55.7851 45.6173 55.1074 45.6385H55.0439C56.7634 47.4246 62.6628 53.5463 63.0313 53.9281C63.5141 54.3863 63.6792 55.0905 63.4505 55.6759C63.2091 56.2868 62.6035 56.6347 61.7946 56.6347H59.8465C59.1773 56.6347 58.5082 56.6347 57.8264 56.6347ZM17.0639 57.2965H8.00083C5.53603 57.2965 5.04052 56.1723 5.04052 54.3566V54.0681C5.04052 47.5603 5.04052 43.5343 5.03205 41.3029C5.03205 40.798 5.22687 40.3229 5.58261 39.9623C5.93836 39.6059 6.41268 39.4065 6.92089 39.4065H11.2491C12.3121 39.4065 13.1846 40.272 13.1888 41.341C13.21 45.541 13.193 49.5288 13.1888 50.3942C13.6335 50.3942 14.8193 50.3985 16.2169 50.4027C19.1348 50.4027 21.625 49.6306 23.2386 48.2221C25.03 46.6567 25.7542 45.1464 25.733 43.0083C25.7119 40.5774 25.3392 38.7702 23.5689 37.2896C21.8749 35.8684 19.588 35.2066 16.382 35.2066H6.59903C5.51485 35.2066 4.50267 34.7611 3.59213 33.8787C3.21945 33.5181 2.93146 33.166 2.70277 32.8648C1.69059 30.8879 1.11039 28.7837 1.00027 27.3837C0.983333 27.1546 1.0638 26.9255 1.21626 26.7558C1.36872 26.5861 1.59318 26.4886 1.82188 26.4886H16.3736C16.9241 26.4886 17.7415 26.497 18.4614 26.5607C22.2264 26.7092 25.9321 27.9267 28.6256 29.8994C30.3408 31.1551 31.6833 32.7206 32.6193 34.5533C33.678 36.632 34.2159 39.0629 34.2159 41.7822C34.2159 46.5252 32.4033 50.4324 28.9729 53.0754C25.9914 55.3747 21.8537 57.2965 17.3264 57.2965H17.0639ZM134.481 57.3177H112.7C112.035 57.3135 111.408 57.0165 110.93 56.4777C110.481 55.9729 110.227 55.3069 110.231 54.6493V41.6762C110.244 39.9071 111.095 39.0841 112.916 39.0841H130.216C131.538 39.0841 132.393 40.0047 132.393 41.4259V43.3986C132.393 44.8452 131.508 45.7446 130.081 45.7446H118.574V49.4609C118.574 49.4991 118.574 49.5288 118.578 49.5457C118.6 49.5457 118.629 49.5542 118.676 49.5542H134.477C135.904 49.5542 136.789 50.4536 136.789 51.9002V54.9887C136.789 56.465 135.946 57.3135 134.477 57.3135L134.481 57.3177ZM73.3394 57.3814H68.5495C67.368 57.3814 66.6057 56.5965 66.6057 55.3875V29.1825C66.6057 27.7825 67.2706 27.1037 68.6385 27.1037H73.1107C74.4871 27.1037 75.2748 27.8631 75.2748 29.1825V55.3875C75.2748 56.5074 74.4236 57.3814 73.3394 57.3814ZM95.4634 57.3305H95.4422C94.79 57.3262 90.8683 57.3305 90.826 57.3305C88.9583 57.3177 88.412 55.9899 87.8318 54.5814L77.5236 29.9503C77.1764 29.1103 77.1764 28.3382 77.5236 27.8291C77.7693 27.4643 78.1758 27.2649 78.6671 27.2649H78.6798L84.1176 27.2734C86.0149 27.2946 86.6375 28.4952 87.205 29.9376L93.3162 45.3076L99.4105 29.874L99.4782 29.7085C100.012 28.3976 100.469 27.2649 102.324 27.2649H102.328L107.813 27.2776C108.414 27.2776 108.901 27.5237 109.185 27.9564C109.503 28.4443 109.515 29.0934 109.223 29.7849L98.4491 55.0311C98.1738 55.6802 97.8647 56.1553 97.4835 56.5244C96.9329 57.059 96.2553 57.3305 95.4634 57.3305ZM132.08 35.109H111.345C111.146 35.109 110.951 35.0284 110.811 34.8842C110.671 34.7399 110.595 34.5533 110.599 34.3496C110.642 32.0842 111.192 30.417 112.289 29.2461C113.573 27.8716 115.559 27.2013 118.358 27.197H137.645C137.873 27.197 138.089 27.2946 138.246 27.4601C138.398 27.6298 138.479 27.8546 138.458 28.0794L138.449 28.1685C138.331 29.6703 137.7 31.2358 136.671 32.5763C136.425 32.8945 136.124 33.2678 135.726 33.6497C134.883 34.4642 133.558 34.9945 132.097 35.1048H132.08V35.109Z" fill="url(#paint0_linear_1351_17401)"/>
<path d="M50.9017 6.90129C50.9568 6.80371 50.9017 6.73159 50.7747 6.73159C50.131 6.73159 49.2882 6.73159 48.6233 6.73159C48.4666 6.73159 48.3819 6.74856 48.3056 6.89704C48.06 7.37219 45.0489 11.8903 44.4899 12.7642C44.3967 12.9 44.2781 12.8788 44.2654 12.726C44.2103 12.2042 43.7614 11.6061 43.0542 11.3218C42.5163 11.1055 41.9869 11.063 41.4406 11.1352C40.4496 11.2667 39.5687 11.7927 38.7937 12.3782C37.6248 13.2691 36.6169 14.4187 35.3167 15.2757C34.6052 15.7381 33.6312 16.1411 32.9832 15.5387C32.3945 14.9915 32.4623 13.7781 33.3643 12.8363C33.4575 12.7388 33.5761 12.8194 33.5549 12.9085C33.4702 13.3327 33.5719 13.7569 33.898 14.0539C34.2918 14.406 34.8509 14.4484 35.3336 14.2109C35.9011 13.9266 36.2357 13.3836 36.3331 12.7685C36.4856 11.8097 35.7487 10.9655 34.8254 10.8976C34.0758 10.8424 33.3559 11.1055 32.6571 11.6824C32.3056 11.9751 32.1065 12.1873 31.8058 12.6242C31.7338 12.7303 31.6195 12.7388 31.6237 12.5818C31.6576 11.3515 31.1536 10.6643 30.1372 10.6388C29.3537 10.6218 28.511 11.0503 27.8588 11.5721C27.1388 12.1491 26.5162 12.9169 25.8429 13.6339C25.7582 13.723 25.6862 13.7187 25.6608 13.5448C25.6396 12.7303 25.4363 11.9454 25.0594 11.3855C24.9281 11.1903 24.6486 11.0927 24.4114 11.2285C24.3055 11.2879 23.9244 11.4618 23.6491 11.6824C23.5136 11.797 23.4628 11.9582 23.5221 12.166C23.8863 13.3794 23.8058 14.7624 23.3103 15.929C22.8572 16.9981 21.9805 17.9611 20.9471 18.2878C20.2653 18.5041 19.558 18.3981 19.1218 17.7956C18.5204 16.9641 18.7661 15.5133 19.6597 14.3084C20.4516 13.2478 21.5951 12.5776 22.7343 12.1406C22.8699 12.0897 22.8953 12.0048 22.8572 11.8861C22.7936 11.6994 22.6962 11.4406 22.6539 11.3261C22.548 11.0503 22.2558 11.0036 21.9 11.0418C21.07 11.1394 20.3246 11.4236 19.5834 11.8182C17.648 12.8533 16.6824 14.8642 16.2589 15.9375C16.0556 16.4551 15.8778 16.7732 15.6533 17.0617C15.3484 17.4435 14.963 17.7956 14.2642 18.4108C14.2007 18.4659 14.1541 18.5847 14.2092 18.695C14.2811 18.8435 14.6454 19.3568 14.747 19.4035C14.8614 19.4586 14.9926 19.3823 15.0435 19.3441C15.5347 19.0132 16.1192 18.4829 16.4071 18.1266C16.5046 18.0035 16.6104 18.0544 16.6655 18.2411C16.9323 19.1956 17.6353 19.9805 18.6009 20.3029C20.3712 20.901 22.2134 20.0356 23.5983 18.5253C24.4792 17.5666 24.7968 16.9514 25.1356 16.5272C25.7073 15.8145 26.8381 14.2236 28.1849 13.2012C28.6804 12.8236 29.2648 12.5394 29.557 12.726C29.7942 12.8788 29.8704 13.2351 29.4893 13.9266C28.1171 16.4381 26.097 19.3865 25.7285 20.1035C25.6608 20.2265 25.7201 20.3241 25.8513 20.3241C26.5713 20.3241 27.2828 20.3241 27.9308 20.3241C28.0366 20.3198 28.0875 20.2689 28.1425 20.1926C29.197 18.5423 30.188 16.9684 31.2468 15.3436C31.3061 15.246 31.3612 15.3224 31.3612 15.3648C31.3823 15.7423 31.4755 16.2599 31.7 16.5951C32.1023 17.2187 32.6698 17.4902 33.3008 17.4944C33.8048 17.4987 34.0547 17.4223 34.601 17.2229C35.0414 17.0575 35.3972 16.8411 35.664 16.6502C35.8207 16.5399 35.8503 16.7266 35.8461 16.752C35.6005 18.0629 35.9011 19.6156 37.2055 20.2605C38.764 21.0283 40.475 19.9465 41.4576 18.9708C41.555 18.8774 41.6566 18.8859 41.6693 19.0896C41.6905 19.4629 41.8556 19.9041 42.1648 20.2138C42.9906 21.0453 44.6508 20.7144 46.3236 19.4205C47.3951 18.589 48.5174 17.4181 49.5338 16.1793C49.5719 16.1326 49.5973 16.0563 49.5253 15.9757C49.3729 15.8145 49.1484 15.6278 48.996 15.4836C48.924 15.4242 48.8223 15.4411 48.763 15.4836C47.7254 16.472 46.7895 17.6005 45.4385 18.5338C44.9854 18.852 44.2569 19.1108 43.9308 18.6696C43.8038 18.4956 43.8165 18.2581 43.9435 17.9484C44.3374 16.9641 50.5756 7.44431 50.8975 6.88432L50.9017 6.90129ZM42.6561 14.8812C42.6688 14.9533 42.762 15.0254 42.8594 15.0593C42.8932 15.0721 42.9102 15.0933 42.8721 15.1739C42.6053 15.7423 42.3639 16.069 42.0293 16.5654C41.7244 17.0235 41.3771 17.3799 40.962 17.7193C40.331 18.2411 39.4586 18.8096 38.7344 18.4278C38.4125 18.2623 38.2728 17.8126 38.2813 17.4478C38.2982 16.4254 38.7513 15.369 39.5899 14.3381C40.6148 13.0739 41.7455 12.4206 42.4909 12.7769C43.2617 13.1418 43.0161 14.0369 42.673 14.7369C42.6476 14.7921 42.6434 14.8345 42.6603 14.8812H42.6561ZM5.64585 20.2986C3.3208 20.3156 1.27103 18.8732 1.03387 16.3829C0.902579 14.9999 1.2922 13.7697 2.07569 12.7557C2.76601 11.8521 3.93912 11.1012 4.93012 10.9188C5.25199 10.8594 5.68397 10.8976 5.86607 11.1097C6.14982 11.4364 6.06512 11.797 5.78561 11.9412C5.03177 12.3273 4.11699 12.9933 3.66808 13.8927C3.30386 14.6309 3.22763 15.5217 3.78666 16.3702C4.71837 17.7829 7.32717 17.8211 9.74539 15.5684C10.3468 15.0169 10.8804 14.4866 11.4267 13.8587C12.4939 12.6369 12.8455 12.1915 14.2684 10.223C14.2854 10.2018 14.2896 10.1679 14.2811 10.1552C14.2684 10.1297 14.2473 10.1212 14.2092 10.1212C13.2605 10.1467 12.4389 10.4309 11.6342 11.0333C11.4013 11.203 11.071 11.1776 10.9227 10.957C10.7618 10.7067 10.8762 10.3758 11.143 10.1934C12.4347 9.29397 13.8449 9.13276 15.2806 8.89095C15.2806 8.89095 15.378 8.89519 15.4627 8.78489C16.0556 8.02551 16.5003 7.34249 17.1313 6.57462C17.7666 5.79403 18.5882 5.08132 19.2108 4.54254C20.0832 3.7874 20.6422 3.5371 21.2139 3.22317C21.3664 3.1468 21.197 3.04923 21.1504 3.04923C17.9699 2.45106 14.6623 1.67471 11.5029 2.8456C9.31765 3.66437 8.35629 5.40374 8.81791 6.5619C9.14401 7.38491 10.2282 7.51643 11.2404 7.02431C12.0831 6.61281 12.8582 5.94676 13.4087 5.0898C13.7179 4.61466 14.3701 4.95829 14.0186 5.7813C13.0953 7.95763 11.3251 9.68427 9.17366 9.75639C7.34411 9.81578 6.16253 8.46671 6.16253 6.79947C6.17947 3.52013 9.83009 1.36077 13.6628 1.03411C18.279 0.6523 22.6539 1.88258 27.2362 2.43833C30.7471 2.86257 34.1182 2.87529 37.646 2.06076C38.061 1.96743 38.3575 2.2347 38.3278 2.65893C38.294 3.26983 37.8239 3.85952 36.6592 4.49163C35.3379 5.21707 33.953 5.43767 32.5089 5.4504C29.0149 5.4801 25.7582 4.11406 22.3913 3.38013C22.3955 3.52862 22.4336 3.70255 22.3108 3.79588C20.4432 5.17465 18.7576 6.57463 17.6268 8.53883C17.5887 8.5855 17.6099 8.62792 17.6734 8.62368C18.656 8.57277 19.5369 8.54732 20.4516 8.47096C20.6083 8.45823 20.6168 8.41581 20.6041 8.30126C20.5236 7.62249 20.7184 6.85038 21.3156 6.32008C21.9254 5.77282 22.6877 5.70918 23.1917 6.10372C23.7677 6.55341 23.7169 7.35946 23.4035 7.96612C23.0816 8.58126 22.5565 8.90792 22.0483 9.06913C22.0483 9.06913 21.9424 9.09458 21.9551 9.19216C21.9763 9.34912 22.6666 9.73094 22.7259 9.83275C22.7809 9.93033 22.7513 10.0788 22.6496 10.1976C22.5776 10.2824 22.4633 10.3588 22.3151 10.3546C22.1965 10.3546 22.1245 10.3121 21.972 10.2273C21.6629 10.0576 21.2775 9.78184 21.0149 9.45518C20.926 9.34488 20.8836 9.34064 20.6634 9.35761C19.6724 9.41276 18.1266 9.56548 17.0805 9.69275C16.8264 9.72669 16.7883 9.76912 16.7375 9.85821C15.0689 12.6157 13.2859 15.5896 11.3335 17.575C9.24142 19.7132 7.49657 20.2732 5.64585 20.2859V20.2986ZM21.5485 8.05096C21.5739 8.1952 21.629 8.22066 21.6925 8.20793C22.0101 8.1443 22.3574 7.88127 22.5649 7.58006C22.7513 7.30431 22.8402 6.90553 22.6539 6.74856C22.4887 6.60432 22.2177 6.64674 22.0186 6.82492C21.6205 7.17704 21.4977 7.67764 21.5528 8.05521" fill="white"/>
<defs>
<linearGradient id="paint0_linear_1351_17401" x1="29.3583" y1="-1.4346" x2="111.736" y2="80.8017" gradientUnits="userSpaceOnUse">
<stop stop-color="#00C9FA"/>
<stop offset="0.25" stop-color="#01C9F8"/>
<stop offset="0.34" stop-color="#06CCF1"/>
<stop offset="0.41" stop-color="#0ED2E5"/>
<stop offset="0.46" stop-color="#1BDAD4"/>
<stop offset="0.49" stop-color="#26E1C6"/>
<stop offset="0.51" stop-color="#3BDAB2"/>
<stop offset="0.57" stop-color="#6ECA83"/>
<stop offset="0.63" stop-color="#9BBC5B"/>
<stop offset="0.68" stop-color="#BFB13A"/>
<stop offset="0.74" stop-color="#DBA920"/>
<stop offset="0.8" stop-color="#EFA20E"/>
<stop offset="0.85" stop-color="#FB9F03"/>
<stop offset="0.91" stop-color="#FF9E00"/>
</linearGradient>
</defs>
</svg>
