<svg width="37" height="13" viewBox="0 0 37 13" fill="none" xmlns="http://www.w3.org/2000/svg">
<path d="M29.0517 13C27.7149 13 26.6645 12.2108 26.0915 11.1256H25.996H10.7175C10.1446 12.2108 9.09416 13 7.75729 13C6.51591 13 5.37003 12.2108 4.79708 11.1256C1.16844 10.731 0.977454 10.3364 0.881963 10.1391C0.690981 9.74452 0.786472 9.34992 0.881963 9.15261C0.690981 8.95531 0.5 8.26476 0.5 6.09444C0.5 5.99578 0.5 5.89713 0.595491 5.79848C0.786472 5.50253 2.31432 3.33221 9.95358 3.33221C10.0491 3.33221 10.0491 3.33221 10.1446 3.33221C10.9085 2.9376 15.2056 0.569983 17.7838 0.175379C20.5531 -0.219224 25.3276 0.175379 25.6141 0.175379C25.805 0.175379 28.8607 0.865936 31.439 2.24705H34.2082C34.9722 2.24705 35.6406 2.93761 35.6406 3.72681V6.29174L36.2135 6.58769C36.4045 6.68634 36.5 6.88364 36.5 7.08094V8.65936C36.5 8.75801 36.5 8.85666 36.4045 8.95531C36.4045 9.05396 35.1631 10.6324 32.1074 11.1256H32.0119C31.439 12.2108 30.3886 13 29.0517 13Z" fill="#505050"/>
</svg>
