<svg width="4" height="14" viewBox="0 0 4 14" fill="none" xmlns="http://www.w3.org/2000/svg">
<path d="M3.25934 0.333496L2.98774 9.49111H1.01243L0.732592 0.333496H3.25934ZM0.666748 12.3263C0.666748 11.9398 0.787461 11.6197 1.02889 11.3661C1.2758 11.1064 1.59953 10.9766 2.00008 10.9766C2.40612 10.9766 2.72985 11.1064 2.97127 11.3661C3.2127 11.6197 3.33341 11.9398 3.33341 12.3263C3.33341 12.7006 3.2127 13.0177 2.97127 13.2773C2.72985 13.537 2.40612 13.6668 2.00008 13.6668C1.59953 13.6668 1.2758 13.537 1.02889 13.2773C0.787461 13.0177 0.666748 12.7006 0.666748 12.3263Z" fill="#D31700"/>
</svg>
