<svg width="106" height="50" viewBox="0 0 106 50" fill="none" xmlns="http://www.w3.org/2000/svg">
<g clip-path="url(#clip0_658_1214)">
<path d="M47.228 41.0922C48.4306 41.0922 48.5487 40.0224 47.9931 39.5034C47.9931 39.5034 41.1829 32.5092 41.0809 32.408C41.0246 32.3522 41.0058 32.3335 40.9467 32.275C40.9279 32.2563 40.9333 32.2084 40.9843 32.2084C40.995 32.2084 41.4299 32.2084 41.4379 32.2084C42.0339 32.1792 42.8392 32.2138 43.8673 31.9024C45.3839 31.4473 47.0831 30.412 48.1622 28.6102C49.9043 25.7066 49.6224 22.5874 47.5152 20.0405C45.8241 17.9991 43.7894 17.3631 40.791 17.3631C37.7148 17.3631 32.883 17.3631 31.5596 17.3631C29.7745 17.3631 28.886 17.6558 27.9116 18.3238C26.8594 19.0477 26.0487 20.0112 25.638 21.4616C25.536 21.8263 25.4474 22.4756 25.4474 22.4756C25.4098 22.9254 25.4367 23.1304 25.842 23.1304C26.4889 23.1304 39.1536 23.1304 40.3642 23.1304C41.1856 23.1304 41.7923 23.1383 42.3506 23.6573C42.6915 23.974 42.917 24.5356 42.917 25.004C42.917 25.4671 42.7962 26.018 42.458 26.3613C41.8728 26.9548 41.446 27.0719 40.4662 27.0719C39.3281 27.0719 32.7756 27.0719 32.7756 27.0719C31.6536 27.0719 30.8268 27.1677 30.3087 27.8969C29.7719 28.6528 29.8229 29.6508 30.4752 30.2975C30.9315 30.7526 38.0611 37.9198 40.4555 40.3178C40.9521 40.8155 41.6258 41.0949 42.3291 41.0949C44.0068 41.0949 45.6309 41.0949 47.2253 41.0949L47.228 41.0922ZM56.5936 39.4448V18.7044C56.5936 17.9113 56.1937 17.4083 55.2193 17.4083H51.6437C50.7042 17.4083 50.3714 17.8474 50.3714 18.7044V39.4448C50.3714 40.1714 50.7794 40.6717 51.5713 40.6717H55.3991C56.0568 40.6717 56.5936 40.1607 56.5936 39.4448ZM81.9417 17.4163L77.5287 17.4057C76.2214 17.4057 75.9691 18.1482 75.5101 19.2633L70.2729 32.3894L65.0224 19.3139C64.5768 18.1934 64.1715 17.4269 62.8642 17.411L58.4807 17.403C57.6781 17.3977 57.5278 18.2014 57.8821 19.0557L66.1847 38.6916C66.6733 39.868 67.033 40.6558 68.2678 40.6638C68.2678 40.6638 71.4567 40.6611 71.9855 40.6638C73.2203 40.6717 73.776 39.7482 74.0766 39.0483L82.7524 18.9253C83.1174 18.0763 82.747 17.4243 81.9417 17.419V17.4163ZM104.788 17.4429C104.971 17.4429 105.115 17.5973 105.099 17.7782C105.099 17.8049 105.094 17.8288 105.094 17.8501C105.013 18.8827 104.595 20.0963 103.712 21.2301C103.491 21.5122 103.266 21.7837 102.976 22.0605C102.316 22.6912 101.277 23.0612 100.227 23.141H83.2866C83.1443 23.141 83.0289 23.0266 83.0315 22.8882C83.0906 19.745 84.4059 17.4509 89.0203 17.4429H104.788ZM26.0192 29.2277C26.0192 37.1613 19.5473 40.709 12.7801 40.709H5.2774C3.60507 40.709 3.24806 40.0836 3.24806 38.7209C3.24806 37.9944 3.24806 32.5225 3.24269 28.3228C3.24269 27.684 3.76345 27.1651 4.40768 27.1651H7.89194C8.55228 27.1651 9.09451 27.7 9.0972 28.3547C9.11599 32.1579 9.0972 35.6976 9.0972 35.6976C9.0972 35.8466 9.16967 35.9131 9.30389 35.9131C9.30389 35.9131 10.4608 35.9185 11.8889 35.9211C14.1679 35.9211 16.3368 35.3383 17.7729 34.098C19.2144 32.8525 19.9204 31.5537 19.9016 29.6774C19.8828 27.7985 19.6224 26.1724 18.0333 24.855C16.5704 23.6413 14.6269 23.1144 12.0231 23.1144H4.14999C3.11652 23.1144 2.37833 22.5395 1.97569 22.1536C1.70725 21.8981 1.49788 21.6479 1.29387 21.3845C0.477833 20.3359 0.0751838 18.6885 2.27576e-05 17.733C-0.0133989 17.5547 0.12887 17.4003 0.311404 17.4003H12.0151C12.5707 17.4003 13.1559 17.4136 13.674 17.4562C18.5245 17.6452 26.0192 20.256 26.0192 29.2277ZM103.255 36.8233C103.255 36.8233 103.255 39.2505 103.255 39.2346C103.255 40.1581 102.785 40.6984 101.787 40.6984H84.5992C83.7134 40.693 83.002 39.8467 83.0074 38.9684V28.8338C83.0154 27.7106 83.4476 27.1518 84.8005 27.1597H98.4235C99.465 27.1597 99.7871 27.9502 99.7871 28.6395V30.1804C99.7871 31.0108 99.3442 31.6629 98.3188 31.6629H89.2055C88.9693 31.6629 88.8834 31.8385 88.8834 32.0275V34.9151C88.8834 35.1759 88.98 35.3383 89.3182 35.3383H101.787C102.815 35.3383 103.255 35.9903 103.255 36.8207V36.8233Z" fill="url(#paint0_linear_658_1214)"/>
<path d="M36.0021 4.24229C36.0424 4.17309 36.0021 4.12253 35.9108 4.12253C35.4464 4.12253 34.8398 4.12253 34.3566 4.12253C34.2412 4.12253 34.1821 4.13584 34.1284 4.24229C33.9513 4.58029 31.7797 7.80593 31.3743 8.43136C31.3072 8.52717 31.224 8.51386 31.2133 8.40474C31.173 8.03215 30.8482 7.60632 30.3382 7.40139C29.9489 7.24437 29.5678 7.21775 29.1732 7.26832C28.4591 7.36413 27.823 7.73673 27.2646 8.15723C26.4217 8.79331 25.6943 9.61569 24.7548 10.2252C24.2421 10.5552 23.5415 10.8453 23.0717 10.4141C22.6476 10.0229 22.6959 9.15526 23.3455 8.48459C23.4153 8.41539 23.4958 8.47394 23.4824 8.53515C23.4207 8.83855 23.4958 9.13929 23.7294 9.35221C24.0139 9.60504 24.4192 9.63166 24.7655 9.46399C25.1762 9.26172 25.4178 8.87315 25.4876 8.43136C25.5977 7.74738 25.0635 7.14323 24.4004 7.09533C23.8609 7.05807 23.3428 7.24437 22.8355 7.65689C22.5832 7.86448 22.4382 8.01884 22.2208 8.32756C22.1671 8.40208 22.0866 8.41007 22.0892 8.29829C22.1134 7.42268 21.7483 6.92766 21.0182 6.91169C20.4518 6.89838 19.8451 7.20445 19.3727 7.57704C18.8546 7.98956 18.401 8.53515 17.9151 9.04881C17.8534 9.11268 17.8024 9.11002 17.7863 8.98759C17.7729 8.40741 17.6252 7.84319 17.3541 7.44397C17.2575 7.30558 17.0561 7.23638 16.887 7.32953C16.8092 7.37212 16.5354 7.4972 16.3367 7.65423C16.2374 7.73407 16.1998 7.85117 16.2428 8.00021C16.5059 8.86783 16.4468 9.85522 16.0925 10.6882C15.7677 11.4521 15.1315 12.1414 14.3879 12.3729C13.8967 12.5273 13.3867 12.4528 13.0726 12.0216C12.6377 11.4254 12.8149 10.3902 13.4591 9.53052C14.0282 8.77468 14.855 8.29296 15.6764 7.98424C15.773 7.94698 15.7918 7.88577 15.765 7.80326C15.7193 7.67019 15.6496 7.48656 15.62 7.40405C15.5449 7.20445 15.3328 7.17251 15.0751 7.20178C14.4765 7.27098 13.937 7.47325 13.4055 7.75536C12.0096 8.49523 11.3117 9.92973 11.0057 10.6962C10.858 11.0635 10.7319 11.295 10.5681 11.4973C10.348 11.7714 10.0715 12.0216 9.56687 12.4607C9.52124 12.5007 9.48634 12.5858 9.52661 12.663C9.57761 12.7695 9.84067 13.1367 9.91583 13.1687C9.99905 13.2086 10.093 13.1527 10.1306 13.1261C10.4849 12.8892 10.9064 12.5113 11.113 12.2585C11.1855 12.1706 11.2607 12.2079 11.2983 12.341C11.4915 13.025 11.9962 13.5812 12.6968 13.8154C13.9745 14.2439 15.3033 13.6238 16.3045 12.5459C16.9407 11.8619 17.1716 11.4201 17.4158 11.122C17.8292 10.6137 18.6453 9.47729 19.617 8.74807C19.974 8.47926 20.3954 8.27434 20.6075 8.41007C20.7766 8.51919 20.833 8.77468 20.5592 9.26438C19.5687 11.0582 18.1111 13.1634 17.8453 13.6743C17.797 13.7622 17.84 13.8314 17.9339 13.8314C18.452 13.8314 18.9647 13.8314 19.4371 13.8314C19.515 13.8287 19.5499 13.7914 19.5901 13.7382C20.3498 12.5592 21.0665 11.4361 21.8316 10.2757C21.8745 10.2065 21.9148 10.2598 21.9148 10.289C21.9309 10.5578 21.998 10.9278 22.159 11.1673C22.4489 11.6144 22.8596 11.806 23.316 11.8087C23.6784 11.814 23.8609 11.7581 24.2528 11.6144C24.5696 11.4973 24.8273 11.3429 25.0232 11.2046C25.1386 11.1247 25.1574 11.2578 25.1547 11.2791C24.9803 12.2159 25.195 13.3257 26.1345 13.7861C27.2566 14.3344 28.4914 13.5626 29.2027 12.8679C29.2725 12.8014 29.3477 12.8067 29.353 12.9531C29.3691 13.2192 29.4899 13.536 29.71 13.7568C30.306 14.3477 31.5059 14.1135 32.7111 13.19C33.4842 12.5991 34.2949 11.7608 35.025 10.8745C35.0518 10.8399 35.0733 10.784 35.0196 10.7282C34.9096 10.6137 34.7458 10.4806 34.6358 10.3795C34.5848 10.3369 34.5123 10.3502 34.4694 10.3795C33.7204 11.0875 33.044 11.8912 32.0696 12.5592C31.7394 12.7854 31.2159 12.9691 30.9824 12.655C30.8911 12.5326 30.9019 12.3623 30.9905 12.1387C31.275 11.4361 35.7766 4.6415 36.0102 4.23963L36.0021 4.24229ZM30.051 9.94038C30.059 9.99361 30.1288 10.0415 30.1959 10.0655C30.2201 10.0735 30.2335 10.0921 30.2066 10.1453C30.0161 10.5525 29.8389 10.7867 29.6 11.1407C29.3799 11.468 29.1302 11.7209 28.8296 11.9657C28.3759 12.3383 27.7451 12.7429 27.2244 12.4714C26.9935 12.3516 26.8915 12.0323 26.8969 11.7714C26.9103 11.0395 27.2351 10.289 27.8418 9.55181C28.5799 8.64959 29.396 8.18119 29.9328 8.43934C30.4885 8.70282 30.3113 9.3389 30.0617 9.83659C30.0429 9.87651 30.0429 9.90844 30.051 9.94038Z" fill="#000268"/>
<path d="M3.34991 13.8074C1.67221 13.8207 0.193147 12.7908 0.0240349 11.0103C-0.0699164 10.0229 0.211938 9.14463 0.772961 8.42072C1.27225 7.774 2.11781 7.23905 2.83452 7.10864C3.06806 7.06606 3.37944 7.09268 3.51097 7.24704C3.71498 7.48124 3.65593 7.7394 3.45192 7.84053C2.907 8.11732 2.24934 8.59105 1.92454 9.23512C1.66147 9.76208 1.60779 10.3982 2.01043 11.0023C2.6842 12.011 4.56323 12.0402 6.31072 10.4301C6.7429 10.0362 7.12944 9.65828 7.52404 9.2085C8.29444 8.33556 8.54945 8.01885 9.57218 6.61096C9.5856 6.59499 9.58828 6.5737 9.58291 6.56306C9.57486 6.54443 9.56144 6.5391 9.52923 6.5391C8.84741 6.55773 8.25149 6.76 7.67167 7.18849C7.50525 7.30825 7.26634 7.29228 7.15897 7.1326C7.04354 6.95428 7.12676 6.72008 7.31734 6.58701C8.24881 5.94561 9.26616 5.8285 10.3023 5.65551C10.3023 5.65551 10.3748 5.65817 10.4338 5.58099C10.8607 5.03806 11.1828 4.54836 11.6364 4.00011C12.0954 3.44388 12.686 2.93288 13.137 2.54964C13.7678 2.01204 14.1731 1.83106 14.5838 1.61016C14.6912 1.55427 14.5704 1.48774 14.5382 1.48774C12.2431 1.05925 9.85672 0.505674 7.57772 1.34402C5.99934 1.92687 5.30679 3.16975 5.63964 3.99745C5.87586 4.58562 6.657 4.68143 7.38714 4.32747C7.99379 4.03205 8.55482 3.55832 8.95478 2.94619C9.17758 2.60553 9.64734 2.85038 9.39233 3.44122C8.72661 4.99548 7.45156 6.22772 5.90002 6.28094C4.57933 6.32353 3.72572 5.3601 3.7284 4.17044C3.73377 1.82574 6.36709 0.282115 9.13195 0.0505722C12.4632 -0.223554 15.62 0.657375 18.927 1.05659C21.4611 1.35999 23.893 1.36797 26.4405 0.787784C26.7411 0.72391 26.9532 0.912871 26.9344 1.21627C26.9102 1.65274 26.5693 2.07325 25.7291 2.52569C24.7762 3.04466 23.7776 3.20169 22.7334 3.20967C20.2128 3.23096 17.8641 2.25689 15.4321 1.73259C15.4347 1.83904 15.4616 1.96413 15.373 2.03066C14.0282 3.01539 12.8095 4.01608 11.9961 5.41865C11.9693 5.45058 11.9827 5.48252 12.031 5.47986C12.7397 5.4426 13.3759 5.42397 14.0362 5.3734C14.1516 5.36276 14.157 5.33614 14.1463 5.25098C14.0872 4.7666 14.2295 4.21569 14.659 3.8351C15.0992 3.44388 15.6495 3.39863 16.0146 3.68074C16.4306 4.00011 16.393 4.57764 16.1649 5.00879C15.934 5.44792 15.5529 5.68213 15.1878 5.79657C15.1878 5.79657 15.1099 5.81254 15.1234 5.88173C15.1368 5.99351 15.6361 6.26764 15.679 6.3395C15.7193 6.40869 15.6978 6.51781 15.6226 6.60031C15.569 6.66153 15.4884 6.71742 15.3811 6.71476C15.2952 6.71476 15.2442 6.68282 15.1341 6.62427C14.9113 6.5045 14.6294 6.30756 14.4442 6.07335C14.3798 5.99351 14.3476 5.99351 14.1892 6.0015C13.4752 6.04142 12.3585 6.15054 11.6042 6.24368C11.4217 6.26498 11.3948 6.29957 11.3573 6.36345C10.152 8.3329 8.86888 10.454 7.45693 11.8752C5.94297 13.4002 4.68402 13.7994 3.34723 13.8101L3.34991 13.8074ZM14.8227 5.06202C14.8415 5.16315 14.8818 5.18178 14.9274 5.1738C15.1556 5.12855 15.4079 4.94225 15.5555 4.72402C15.6898 4.52707 15.7542 4.24496 15.62 4.13052C15.4992 4.02939 15.3059 4.05866 15.1609 4.18375C14.8737 4.43658 14.7851 4.79321 14.8227 5.06202Z" fill="#000268"/>
</g>
<defs>
<linearGradient id="paint0_linear_658_1214" x1="21.4639" y1="-3.69937" x2="83.8345" y2="59.2108" gradientUnits="userSpaceOnUse">
<stop offset="0.01" stop-color="#00C9FA"/>
<stop offset="0.16" stop-color="#03CBF5"/>
<stop offset="0.31" stop-color="#0CD0E8"/>
<stop offset="0.47" stop-color="#1CDAD3"/>
<stop offset="0.55" stop-color="#26E1C6"/>
<stop offset="0.56" stop-color="#38DBB5"/>
<stop offset="0.6" stop-color="#66CD8B"/>
<stop offset="0.64" stop-color="#8FC065"/>
<stop offset="0.69" stop-color="#B1B546"/>
<stop offset="0.74" stop-color="#CEAD2C"/>
<stop offset="0.79" stop-color="#E3A618"/>
<stop offset="0.84" stop-color="#F3A10A"/>
<stop offset="0.91" stop-color="#FC9E02"/>
<stop offset="1" stop-color="#FF9E00"/>
</linearGradient>
<clipPath id="clip0_658_1214">
<rect width="105.102" height="50" fill="white"/>
</clipPath>
</defs>
</svg>
