<svg width="24" height="24" viewBox="0 0 24 24" fill="#AEB4BF" xmlns="http://www.w3.org/2000/svg">
<path fill-rule="evenodd" clip-rule="evenodd" d="M12 2C7.98112 2 4.76599 5.16206 4.76599 9.11462C4.76599 11.4071 5.56977 12.5929 7.01658 14.6482C7.15437 14.8289 10.7674 20.1747 12 22L16.9835 14.6482C17.0309 14.5783 17.0775 14.5096 17.1235 14.4418C18.4821 12.4401 19.2341 11.3321 19.2341 9.11462C19.2341 5.16206 16.0189 2 12 2ZM11.9998 12.6383C14.1149 12.6383 15.8296 10.9236 15.8296 8.80851C15.8296 6.69338 14.1149 4.97872 11.9998 4.97872C9.88465 4.97872 8.17 6.69338 8.17 8.80851C8.17 10.9236 9.88465 12.6383 11.9998 12.6383Z" fill="#AEB4BF"/>
</svg>
