<svg width="15" height="21" viewBox="0 0 15 21" fill="none" xmlns="http://www.w3.org/2000/svg">
<path fill-rule="evenodd" clip-rule="evenodd" d="M7.50015 0.5C3.48124 0.5 0.266113 3.66206 0.266113 7.61462C0.266113 9.90711 1.0699 11.0929 2.5167 13.1482C2.6545 13.3289 6.26753 18.6747 7.50015 20.5L12.4836 13.1482C12.531 13.0783 12.5776 13.0096 12.6236 12.9418C13.9822 10.9401 14.7342 9.83206 14.7342 7.61462C14.7342 3.66206 11.5191 0.5 7.50015 0.5ZM7.49991 11.1383C9.61504 11.1383 11.3297 9.42364 11.3297 7.30851C11.3297 5.19338 9.61504 3.47872 7.49991 3.47872C5.38478 3.47872 3.67012 5.19338 3.67012 7.30851C3.67012 9.42364 5.38478 11.1383 7.49991 11.1383Z" fill="#00095B"/>
</svg>
