<svg width="257" height="214" viewBox="0 0 257 214" fill="none" xmlns="http://www.w3.org/2000/svg">
<path d="M339.801 1.14235C420.234 -1.8119 491.003 192.685 497.861 435.565C504.718 678.445 445.084 877.728 364.652 880.682C284.219 883.637 213.45 689.139 206.592 446.26C199.735 203.38 259.37 4.08813 339.801 1.14235ZM197.069 437.291C202.013 672.636 275.496 865.05 361.19 867.044C446.884 869.038 512.337 679.871 507.393 444.526C502.45 209.181 428.966 16.7678 343.272 14.7737C257.58 12.7712 192.125 201.946 197.069 437.291ZM187.545 428.332C190.574 656.151 266.764 846.47 357.718 853.421C448.671 860.372 519.945 681.313 516.916 453.494C513.887 225.675 437.698 35.356 346.744 28.4051C255.79 21.4543 184.509 200.503 187.545 428.332ZM178.022 419.364C179.136 639.656 258.041 827.883 354.256 839.782C450.471 851.681 527.564 682.74 526.449 462.455C525.335 242.163 446.43 53.9359 350.215 42.0368C254 30.1376 176.9 199.07 178.022 419.364ZM168.489 410.402C167.688 623.169 249.299 809.302 350.776 826.149C452.253 842.997 535.163 684.18 535.965 471.413C536.767 258.647 455.155 72.5142 353.678 55.6667C252.201 38.8193 169.291 197.636 168.489 410.402ZM158.965 401.443C156.25 606.675 240.575 790.724 347.305 812.518C454.035 834.312 542.772 685.614 545.489 480.373C548.205 275.141 463.879 91.0924 357.149 69.2981C250.42 47.5038 161.682 196.203 158.965 401.443ZM149.442 392.475C144.812 590.18 231.844 772.136 343.842 798.888C455.84 825.641 550.381 687.047 555.02 489.343C559.651 291.637 472.619 109.682 360.621 82.9295C248.622 56.177 154.073 194.769 149.442 392.475ZM139.918 383.515C133.372 573.695 223.119 753.557 340.371 785.257C457.622 816.956 557.99 688.48 564.545 498.302C571.099 308.124 481.343 128.26 364.084 96.5595C246.824 64.8586 146.464 193.336 139.918 383.515ZM130.394 374.555C121.933 557.209 214.387 734.977 336.908 771.627C459.429 808.276 565.608 689.915 574.067 507.271C582.529 324.617 490.074 146.849 367.553 110.199C245.032 73.5502 138.855 191.902 130.394 374.555ZM120.862 365.586C110.479 540.703 205.655 716.389 333.428 757.994C461.201 799.598 573.208 691.347 583.583 516.229C593.967 341.112 498.79 165.425 371.018 123.821C243.245 82.2163 131.246 190.469 120.862 365.586ZM111.338 356.626C99.0396 524.217 196.923 697.809 329.965 744.364C463.009 790.91 580.824 692.791 593.116 525.19C605.415 357.599 507.532 184.007 374.489 137.452C241.454 90.9081 123.637 189.035 111.338 356.626ZM101.815 347.658C87.6016 507.723 188.2 679.223 326.495 730.724C464.791 782.225 588.435 694.216 602.64 534.15C616.854 374.085 516.256 202.585 377.96 151.084C239.664 99.5912 116.028 187.602 101.815 347.658ZM92.2911 338.698C76.1621 491.237 179.466 660.652 323.032 717.094C466.589 773.543 596.044 695.649 612.173 543.111C628.302 390.572 524.999 221.158 381.432 164.715C237.874 108.274 108.419 186.168 92.2911 338.698ZM82.7668 329.739C64.724 474.743 170.741 642.073 319.559 703.471C468.378 764.869 603.652 697.091 621.694 552.087C639.737 407.084 533.72 239.753 384.902 178.355C236.076 116.947 100.811 184.726 82.7668 329.739ZM73.2355 320.769C53.2775 458.247 162.001 623.483 316.09 689.831C470.178 756.178 611.262 698.516 631.22 561.039C651.178 423.561 542.454 258.324 388.366 191.977C234.278 125.629 93.202 183.293 73.2355 320.769ZM63.7112 311.809C41.838 441.761 153.277 604.905 312.618 676.199C471.959 747.494 618.871 699.95 640.743 570.007C662.615 440.064 551.186 276.912 391.836 205.616C232.486 134.321 85.5929 181.859 63.7112 311.809ZM54.1869 302.85C30.3901 425.274 144.544 586.325 309.147 662.568C473.749 738.811 626.48 701.383 650.267 578.966C674.056 456.541 559.91 295.491 395.307 219.248C230.705 143.005 77.9754 180.424 54.1869 302.85ZM44.6641 293.881C18.9535 408.771 135.821 567.739 305.684 648.938C475.546 730.138 634.088 702.825 659.8 587.927C685.512 473.03 568.643 314.07 398.78 232.871C228.918 151.672 70.3663 178.991 44.6641 293.881ZM35.1399 284.922C7.51399 392.285 127.089 549.159 302.213 635.307C477.337 721.454 641.697 704.259 669.323 596.896C696.949 489.533 577.374 332.659 402.25 246.511C227.126 160.363 62.7573 177.557 35.1399 284.922ZM25.6071 275.961C-3.93396 375.798 118.356 530.579 298.741 621.675C479.127 712.771 649.306 705.692 678.847 605.855C708.388 506.019 586.098 351.237 405.713 260.141C225.328 169.045 55.1482 176.124 25.6071 275.961ZM16.0843 266.993C-15.3706 359.295 109.625 511.991 295.271 608.035C480.917 704.088 656.917 707.117 688.371 614.815C719.826 522.513 594.831 369.817 409.184 273.772C223.537 177.728 47.5391 174.691 16.0843 266.993ZM291.807 594.414C482.714 695.415 664.533 708.56 697.903 623.784C731.273 539.009 603.562 388.405 412.656 287.404C221.749 186.403 39.93 173.257 6.56 258.033C-26.8101 342.809 100.9 493.413 291.807 594.414Z" stroke="url(#paint0_linear_182_5087)" stroke-opacity="0.3" stroke-miterlimit="10"/>
<defs>
<linearGradient id="paint0_linear_182_5087" x1="-15.2487" y1="324.569" x2="719.948" y2="557.084" gradientUnits="userSpaceOnUse">
<stop offset="0.4099" stop-color="#00C6F5"/>
<stop offset="0.4304" stop-color="#1BC2DB"/>
<stop offset="0.4812" stop-color="#57BAA1"/>
<stop offset="0.53" stop-color="#8AB370"/>
<stop offset="0.5756" stop-color="#B1AE4B"/>
<stop offset="0.6172" stop-color="#CEAA2F"/>
<stop offset="0.6535" stop-color="#DFA81F"/>
<stop offset="0.6804" stop-color="#E5A719"/>
<stop offset="1" stop-color="#FFA300"/>
</linearGradient>
</defs>
</svg>
