<svg width="329" height="128" viewBox="0 68 329 128" fill="none" xmlns="http://www.w3.org/2000/svg">
<path d="M199.652 148.222H207.865C212.566 148.222 214.579 149.543 214.579 152.79C214.579 154.847 213.835 156.138 212.214 156.712C214.288 157.216 215.053 158.558 215.053 161.068C215.053 164.92 212.566 165.949 207.815 165.949H199.642V148.222H199.652ZM208.006 155.301C210.08 155.301 210.613 154.605 210.613 153.365C210.613 152.124 209.989 151.55 208.006 151.55H203.497V155.311H208.006V155.301ZM208.268 162.692C210.271 162.692 211.087 162.137 211.087 160.685C211.087 159.233 210.301 158.699 208.268 158.699H203.487V162.692H208.268Z" fill="white"/>
<path d="M216.743 159.152C216.743 155.371 217.982 152.094 223.769 152.094C229.557 152.094 229.91 156.067 229.789 160.584H220.377C220.589 162.208 221.384 163.166 223.79 163.166C225.863 163.166 227.041 162.661 228.037 161.925L229.92 164.365C228.178 165.676 226.457 166.211 223.78 166.211C217.931 166.211 216.733 163.004 216.733 159.152H216.743ZM220.377 157.912H226.377C226.286 156.359 225.974 155.23 223.649 155.23C221.323 155.23 220.569 156.258 220.377 157.912Z" fill="white"/>
<path d="M237.59 148.222H242.704L247.505 160.332L252.307 148.222H257.39V165.949H253.565V154.101L248.814 165.949H245.854L241.123 154.181V165.949H237.59V148.222V148.222Z" fill="white"/>
<path d="M260.017 159.152C260.017 154.605 262 152.094 267.083 152.094C272.167 152.094 274.13 154.605 274.13 159.152C274.13 163.7 272.167 166.211 267.083 166.211C262 166.211 260.017 163.7 260.017 159.152ZM270.385 159.253C270.385 156.954 269.67 155.522 267.093 155.522C264.517 155.522 263.802 156.954 263.802 159.253C263.802 161.552 264.496 163.014 267.093 163.014C269.69 163.014 270.385 161.552 270.385 159.253Z" fill="white"/>
<path d="M274.462 152.407H278.498L281.911 161.593L285.323 152.407H289.118L283.743 166.09H279.827L274.452 152.407H274.462Z" fill="white"/>
<path d="M289.49 159.152C289.49 155.371 290.728 152.094 296.516 152.094C302.304 152.094 302.656 156.067 302.536 160.584H293.124C293.335 162.208 294.13 163.166 296.536 163.166C298.61 163.166 299.788 162.661 300.784 161.925L302.666 164.365C300.925 165.676 299.204 166.211 296.526 166.211C290.678 166.211 289.48 163.004 289.48 159.152H289.49ZM293.124 157.912H299.123C299.033 156.359 298.721 155.23 296.395 155.23C294.07 155.23 293.315 156.258 293.124 157.912Z" fill="white"/>
<path d="M304.217 159.112C304.217 155.24 305.485 152.104 310.216 152.104C312.672 152.104 313.85 152.659 314.424 153.375V147.395H318.178V165.817L315.309 166.08L314.927 164.718C314.112 165.676 312.702 166.231 310.105 166.231C305.445 166.231 304.227 163.024 304.227 159.122L304.217 159.112ZM314.414 159.112C314.414 156.551 313.699 155.472 310.971 155.472C308.515 155.472 308.012 156.954 308.012 159.112C308.012 161.27 308.515 162.984 310.971 162.984C313.427 162.984 314.414 161.714 314.414 159.112Z" fill="white"/>
<path d="M320.483 161.643H324.832V165.949H320.483V161.643Z" fill="white"/>
<path d="M136.065 134.61C134.475 134.61 132.874 134.61 131.264 134.61C128.929 134.61 126.734 133.692 125.083 132.018C121.278 128.167 113.216 119.989 106.743 113.415C101.338 107.929 96.6773 103.19 96.0733 102.595C93.8286 100.347 93.587 96.9085 95.4693 94.2162C97.3215 91.5845 100.311 91.3627 103.462 91.3627H103.482C103.482 91.3627 122.527 91.3627 125.838 91.3627C128.556 91.3627 129.452 91.0501 130.881 89.588C131.536 88.9225 131.928 87.7024 131.928 86.321C131.928 85.2018 131.365 83.8305 130.61 83.1246C129.321 81.9146 127.982 81.8541 125.546 81.8541C122.597 81.8541 96.2948 81.8541 86.722 81.8541H83.3298C83.048 81.8541 82.2024 81.8541 81.6387 81.229C81.065 80.6038 81.0851 79.7266 81.1556 78.809V78.7586C81.1757 78.6779 81.4273 76.7621 81.7394 75.6328C82.8869 71.5289 85.1819 68.3224 88.7554 65.852C91.9563 63.6337 94.8855 62.8472 99.9386 62.8472C100.462 62.8472 101.177 62.8472 102.042 62.8472C105.817 62.8472 112.461 62.8472 118.762 62.8472C121.611 62.8472 124.379 62.8472 126.785 62.8472C136.438 62.8472 142.336 65.2369 147.128 71.0852C153.61 79.0006 154.335 88.6099 149.091 97.4328C145.215 103.967 139.236 106.588 136.025 107.566C133.398 108.363 131.214 108.424 129.603 108.474H129.452C133.539 112.719 147.561 127.269 148.436 128.177C149.584 129.266 149.976 130.94 149.433 132.331C148.859 133.783 147.42 134.61 145.497 134.61H140.867C139.276 134.61 137.686 134.61 136.065 134.61ZM39.1806 136.183H17.6394C11.781 136.183 10.6033 133.511 10.6033 129.195V128.509C10.6033 113.042 10.6033 103.473 10.5832 98.1689C10.5832 96.969 11.0462 95.8396 11.8918 94.9826C12.7373 94.1356 13.8647 93.6617 15.0726 93.6617H25.36C27.8866 93.6617 29.9601 95.7186 29.9702 98.2596C30.0205 108.242 29.9803 117.72 29.9702 119.777C31.0271 119.777 33.8456 119.787 37.1674 119.798C44.1028 119.798 50.0216 117.962 53.8567 114.615C58.1146 110.894 59.8359 107.304 59.7856 102.222C59.7352 96.4446 58.8494 92.1492 54.6419 88.6301C50.6155 85.2522 45.1799 83.6792 37.5599 83.6792H14.3076C11.7307 83.6792 9.32495 82.6205 7.16077 80.5231C6.27497 79.6661 5.59048 78.8292 5.04692 78.1132C2.64116 73.4144 1.26212 68.4131 1.00041 65.0857C0.960146 64.5412 1.1514 63.9967 1.51377 63.5933C1.87615 63.19 2.40964 62.9581 2.9532 62.9581H37.5398C38.8484 62.9581 40.7911 62.9782 42.5023 63.1295C51.4509 63.4824 60.2587 66.3763 66.6606 71.065C70.7373 74.0497 73.9282 77.7704 76.1528 82.1264C78.6693 87.0672 79.9476 92.8449 79.9476 99.3083C79.9476 110.581 75.6394 119.868 67.486 126.15C60.3996 131.615 50.5651 136.183 39.8046 136.183H39.1806ZM318.259 136.233H266.49C264.909 136.223 263.42 135.517 262.282 134.237C261.215 133.037 260.611 131.454 260.621 129.891V99.0562C260.652 94.8515 262.675 92.8953 267.003 92.8953H308.123C311.263 92.8953 313.296 95.0834 313.296 98.4613V103.15C313.296 106.588 311.193 108.726 307.8 108.726H280.451V117.559C280.451 117.65 280.451 117.72 280.461 117.761C280.512 117.761 280.582 117.781 280.693 117.781H318.249C321.641 117.781 323.745 119.919 323.745 123.357V130.698C323.745 134.207 321.742 136.223 318.249 136.223L318.259 136.233ZM172.937 136.384H161.552C158.744 136.384 156.932 134.519 156.932 131.645V69.361C156.932 66.0335 158.512 64.4202 161.764 64.4202H172.393C175.665 64.4202 177.537 66.2251 177.537 69.361V131.645C177.537 134.307 175.514 136.384 172.937 136.384ZM225.521 136.263H225.471C223.921 136.253 214.6 136.263 214.499 136.263C210.06 136.233 208.762 133.077 207.383 129.73L182.882 71.186C182.057 69.1895 182.057 67.3544 182.882 66.1444C183.466 65.2772 184.432 64.8033 185.6 64.8033H185.63L198.555 64.8235C203.064 64.8739 204.544 67.7275 205.893 71.1558L220.418 107.687L234.903 71.0045L235.064 70.6113C236.332 67.4956 237.419 64.8033 241.828 64.8033H241.838L254.874 64.8336C256.303 64.8336 257.461 65.4184 258.135 66.4469C258.89 67.6065 258.92 69.1492 258.226 70.7928L232.618 130.798C231.964 132.341 231.229 133.47 230.323 134.348C229.014 135.618 227.404 136.263 225.521 136.263ZM312.552 83.4473H263.269C262.796 83.4473 262.333 83.2557 262 82.9129C261.668 82.5701 261.487 82.1264 261.497 81.6424C261.598 76.2579 262.906 72.2952 265.513 69.5122C268.563 66.2452 273.284 64.6521 279.938 64.642H325.778C326.322 64.642 326.835 64.8739 327.208 65.2672C327.57 65.6705 327.761 66.2049 327.711 66.7393L327.691 66.9511C327.409 70.5205 325.909 74.2413 323.463 77.4276C322.879 78.1838 322.165 79.0712 321.218 79.9787C319.215 81.9146 316.065 83.1751 312.592 83.4372H312.552V83.4473Z" fill="url(#paint0_linear_1298_20000)"/>
<defs>
<linearGradient id="paint0_linear_1298_20000" x1="68.402" y1="-3.41004" x2="264.199" y2="192.05" gradientUnits="userSpaceOnUse">
<stop stop-color="#00C9FA"/>
<stop offset="0.25" stop-color="#01C9F8"/>
<stop offset="0.34" stop-color="#06CCF1"/>
<stop offset="0.41" stop-color="#0ED2E5"/>
<stop offset="0.46" stop-color="#1BDAD4"/>
<stop offset="0.49" stop-color="#26E1C6"/>
<stop offset="0.51" stop-color="#3BDAB2"/>
<stop offset="0.57" stop-color="#6ECA83"/>
<stop offset="0.63" stop-color="#9BBC5B"/>
<stop offset="0.68" stop-color="#BFB13A"/>
<stop offset="0.74" stop-color="#DBA920"/>
<stop offset="0.8" stop-color="#EFA20E"/>
<stop offset="0.85" stop-color="#FB9F03"/>
<stop offset="0.91" stop-color="#FF9E00"/>
</linearGradient>
</defs>
</svg>
