<svg width="329" height="168" viewBox="0 0 329 168" fill="none" xmlns="http://www.w3.org/2000/svg">
<path d="M199.652 148.222H207.865C212.566 148.222 214.579 149.543 214.579 152.79C214.579 154.847 213.835 156.138 212.214 156.712C214.288 157.216 215.053 158.558 215.053 161.068C215.053 164.92 212.566 165.949 207.815 165.949H199.642V148.222H199.652ZM208.006 155.301C210.08 155.301 210.613 154.605 210.613 153.365C210.613 152.124 209.989 151.55 208.006 151.55H203.497V155.311H208.006V155.301ZM208.268 162.692C210.271 162.692 211.087 162.137 211.087 160.685C211.087 159.233 210.301 158.699 208.268 158.699H203.487V162.692H208.268Z" fill="white"/>
<path d="M216.743 159.152C216.743 155.371 217.982 152.094 223.769 152.094C229.557 152.094 229.91 156.067 229.789 160.584H220.377C220.589 162.208 221.384 163.166 223.79 163.166C225.863 163.166 227.041 162.661 228.037 161.925L229.92 164.365C228.178 165.676 226.457 166.211 223.78 166.211C217.931 166.211 216.733 163.004 216.733 159.152H216.743ZM220.377 157.912H226.377C226.286 156.359 225.974 155.23 223.649 155.23C221.323 155.23 220.569 156.258 220.377 157.912Z" fill="white"/>
<path d="M237.59 148.222H242.704L247.505 160.332L252.307 148.222H257.39V165.949H253.565V154.101L248.814 165.949H245.854L241.123 154.181V165.949H237.59V148.222V148.222Z" fill="white"/>
<path d="M260.017 159.152C260.017 154.605 262 152.094 267.083 152.094C272.167 152.094 274.13 154.605 274.13 159.152C274.13 163.7 272.167 166.211 267.083 166.211C262 166.211 260.017 163.7 260.017 159.152ZM270.385 159.253C270.385 156.954 269.67 155.522 267.093 155.522C264.517 155.522 263.802 156.954 263.802 159.253C263.802 161.552 264.496 163.014 267.093 163.014C269.69 163.014 270.385 161.552 270.385 159.253Z" fill="white"/>
<path d="M274.462 152.407H278.498L281.911 161.593L285.323 152.407H289.118L283.743 166.09H279.827L274.452 152.407H274.462Z" fill="white"/>
<path d="M289.49 159.152C289.49 155.371 290.728 152.094 296.516 152.094C302.304 152.094 302.656 156.067 302.536 160.584H293.124C293.335 162.208 294.13 163.166 296.536 163.166C298.61 163.166 299.788 162.661 300.784 161.925L302.666 164.365C300.925 165.676 299.204 166.211 296.526 166.211C290.678 166.211 289.48 163.004 289.48 159.152H289.49ZM293.124 157.912H299.123C299.033 156.359 298.721 155.23 296.395 155.23C294.07 155.23 293.315 156.258 293.124 157.912Z" fill="white"/>
<path d="M304.217 159.112C304.217 155.24 305.485 152.104 310.216 152.104C312.672 152.104 313.85 152.659 314.424 153.375V147.395H318.178V165.817L315.309 166.08L314.927 164.718C314.112 165.676 312.702 166.231 310.105 166.231C305.445 166.231 304.227 163.024 304.227 159.122L304.217 159.112ZM314.414 159.112C314.414 156.551 313.699 155.472 310.971 155.472C308.515 155.472 308.012 156.954 308.012 159.112C308.012 161.27 308.515 162.984 310.971 162.984C313.427 162.984 314.414 161.714 314.414 159.112Z" fill="white"/>
<path d="M320.483 161.643H324.832V165.949H320.483V161.643Z" fill="white"/>
<path d="M136.065 134.61C134.475 134.61 132.874 134.61 131.264 134.61C128.929 134.61 126.734 133.692 125.083 132.018C121.278 128.167 113.216 119.989 106.743 113.415C101.338 107.929 96.6773 103.19 96.0733 102.595C93.8286 100.347 93.587 96.9085 95.4693 94.2162C97.3215 91.5845 100.311 91.3627 103.462 91.3627H103.482C103.482 91.3627 122.527 91.3627 125.838 91.3627C128.556 91.3627 129.452 91.0501 130.881 89.588C131.536 88.9225 131.928 87.7024 131.928 86.321C131.928 85.2018 131.365 83.8305 130.61 83.1246C129.321 81.9146 127.982 81.8541 125.546 81.8541C122.597 81.8541 96.2948 81.8541 86.722 81.8541H83.3298C83.048 81.8541 82.2024 81.8541 81.6387 81.229C81.065 80.6038 81.0851 79.7266 81.1556 78.809V78.7586C81.1757 78.6779 81.4273 76.7621 81.7394 75.6328C82.8869 71.5289 85.1819 68.3224 88.7554 65.852C91.9563 63.6337 94.8855 62.8472 99.9386 62.8472C100.462 62.8472 101.177 62.8472 102.042 62.8472C105.817 62.8472 112.461 62.8472 118.762 62.8472C121.611 62.8472 124.379 62.8472 126.785 62.8472C136.438 62.8472 142.336 65.2369 147.128 71.0852C153.61 79.0006 154.335 88.6099 149.091 97.4328C145.215 103.967 139.236 106.588 136.025 107.566C133.398 108.363 131.214 108.424 129.603 108.474H129.452C133.539 112.719 147.561 127.269 148.436 128.177C149.584 129.266 149.976 130.94 149.433 132.331C148.859 133.783 147.42 134.61 145.497 134.61H140.867C139.276 134.61 137.686 134.61 136.065 134.61ZM39.1806 136.183H17.6394C11.781 136.183 10.6033 133.511 10.6033 129.195V128.509C10.6033 113.042 10.6033 103.473 10.5832 98.1689C10.5832 96.969 11.0462 95.8396 11.8918 94.9826C12.7373 94.1356 13.8647 93.6617 15.0726 93.6617H25.36C27.8866 93.6617 29.9601 95.7186 29.9702 98.2596C30.0205 108.242 29.9803 117.72 29.9702 119.777C31.0271 119.777 33.8456 119.787 37.1674 119.798C44.1028 119.798 50.0216 117.962 53.8567 114.615C58.1146 110.894 59.8359 107.304 59.7856 102.222C59.7352 96.4446 58.8494 92.1492 54.6419 88.6301C50.6155 85.2522 45.1799 83.6792 37.5599 83.6792H14.3076C11.7307 83.6792 9.32495 82.6205 7.16077 80.5231C6.27497 79.6661 5.59048 78.8292 5.04692 78.1132C2.64116 73.4144 1.26212 68.4131 1.00041 65.0857C0.960146 64.5412 1.1514 63.9967 1.51377 63.5933C1.87615 63.19 2.40964 62.9581 2.9532 62.9581H37.5398C38.8484 62.9581 40.7911 62.9782 42.5023 63.1295C51.4509 63.4824 60.2587 66.3763 66.6606 71.065C70.7373 74.0497 73.9282 77.7704 76.1528 82.1264C78.6693 87.0672 79.9476 92.8449 79.9476 99.3083C79.9476 110.581 75.6394 119.868 67.486 126.15C60.3996 131.615 50.5651 136.183 39.8046 136.183H39.1806ZM318.259 136.233H266.49C264.909 136.223 263.42 135.517 262.282 134.237C261.215 133.037 260.611 131.454 260.621 129.891V99.0562C260.652 94.8515 262.675 92.8953 267.003 92.8953H308.123C311.263 92.8953 313.296 95.0834 313.296 98.4613V103.15C313.296 106.588 311.193 108.726 307.8 108.726H280.451V117.559C280.451 117.65 280.451 117.72 280.461 117.761C280.512 117.761 280.582 117.781 280.693 117.781H318.249C321.641 117.781 323.745 119.919 323.745 123.357V130.698C323.745 134.207 321.742 136.223 318.249 136.223L318.259 136.233ZM172.937 136.384H161.552C158.744 136.384 156.932 134.519 156.932 131.645V69.361C156.932 66.0335 158.512 64.4202 161.764 64.4202H172.393C175.665 64.4202 177.537 66.2251 177.537 69.361V131.645C177.537 134.307 175.514 136.384 172.937 136.384ZM225.521 136.263H225.471C223.921 136.253 214.6 136.263 214.499 136.263C210.06 136.233 208.762 133.077 207.383 129.73L182.882 71.186C182.057 69.1895 182.057 67.3544 182.882 66.1444C183.466 65.2772 184.432 64.8033 185.6 64.8033H185.63L198.555 64.8235C203.064 64.8739 204.544 67.7275 205.893 71.1558L220.418 107.687L234.903 71.0045L235.064 70.6113C236.332 67.4956 237.419 64.8033 241.828 64.8033H241.838L254.874 64.8336C256.303 64.8336 257.461 65.4184 258.135 66.4469C258.89 67.6065 258.92 69.1492 258.226 70.7928L232.618 130.798C231.964 132.341 231.229 133.47 230.323 134.348C229.014 135.618 227.404 136.263 225.521 136.263ZM312.552 83.4473H263.269C262.796 83.4473 262.333 83.2557 262 82.9129C261.668 82.5701 261.487 82.1264 261.497 81.6424C261.598 76.2579 262.906 72.2952 265.513 69.5122C268.563 66.2452 273.284 64.6521 279.938 64.642H325.778C326.322 64.642 326.835 64.8739 327.208 65.2672C327.57 65.6705 327.761 66.2049 327.711 66.7393L327.691 66.9511C327.409 70.5205 325.909 74.2413 323.463 77.4276C322.879 78.1838 322.165 79.0712 321.218 79.9787C319.215 81.9146 316.065 83.1751 312.592 83.4372H312.552V83.4473Z" fill="url(#paint0_linear_1298_20000)"/>
<path d="M119.607 16.4036C119.738 16.1717 119.607 16.0003 119.305 16.0003C117.775 16.0003 115.772 16.0003 114.191 16.0003C113.819 16.0003 113.617 16.0406 113.436 16.3936C112.852 17.5229 105.696 28.2616 104.367 30.3387C104.145 30.6614 103.864 30.611 103.833 30.248C103.702 29.0077 102.635 27.586 100.954 26.9104C99.6761 26.3962 98.4178 26.2953 97.1193 26.4667C94.7639 26.7793 92.6702 28.0297 90.8281 29.4211C88.0499 31.5386 85.6542 34.2712 82.564 36.308C80.8729 37.4071 78.5577 38.365 77.0176 36.9332C75.6185 35.6324 75.7795 32.7486 77.9236 30.5101C78.145 30.2782 78.4269 30.4698 78.3765 30.6816C78.1752 31.6899 78.4168 32.6982 79.1919 33.404C80.128 34.241 81.4567 34.3418 82.6042 33.7771C83.9531 33.1015 84.7483 31.8109 84.9798 30.3488C85.3422 28.07 83.5907 26.0634 81.3963 25.9021C79.6146 25.771 77.9034 26.3962 76.2425 27.7675C75.4071 28.4632 74.934 28.9674 74.2193 30.006C74.0482 30.2581 73.7764 30.2782 73.7865 29.9051C73.867 26.981 72.6691 25.3475 70.2533 25.287C68.3911 25.2467 66.388 26.2651 64.8378 27.5053C63.1266 28.8766 61.6469 30.7017 60.0464 32.4058C59.8451 32.6175 59.674 32.6075 59.6136 32.194C59.5633 30.2581 59.0801 28.3927 58.1842 27.0617C57.8722 26.5978 57.2078 26.3659 56.6441 26.6886C56.3925 26.8297 55.4866 27.2432 54.8323 27.7675C54.5102 28.0397 54.3894 28.4229 54.5303 28.917C55.396 31.8008 55.2047 35.0879 54.027 37.8608C52.9499 40.4018 50.8663 42.6907 48.4102 43.4671C46.7896 43.9814 45.1086 43.7293 44.0718 42.2975C42.6424 40.3212 43.2262 36.8727 45.3502 34.009C47.2325 31.4882 49.9503 29.8951 52.658 28.8565C52.9801 28.7355 53.0405 28.5338 52.9499 28.2515C52.799 27.8078 52.5674 27.1927 52.4668 26.9205C52.2151 26.2651 51.5206 26.1542 50.675 26.2449C48.7021 26.4768 46.9305 27.1524 45.169 28.0902C40.5688 30.5505 38.2738 35.3299 37.2672 37.881C36.784 39.1112 36.3613 39.8674 35.8278 40.5531C35.103 41.4606 34.187 42.2975 32.5261 43.7596C32.3751 43.8906 32.2644 44.173 32.3953 44.4351C32.5664 44.7881 33.4321 46.0081 33.6737 46.119C33.9454 46.2501 34.2575 46.0686 34.3783 45.9779C35.5459 45.1914 36.935 43.931 37.6195 43.084C37.851 42.7916 38.1027 42.9126 38.2335 43.3562C38.8677 45.625 40.5386 47.4904 42.8337 48.2567C47.0412 49.6784 51.4199 47.6215 54.7115 44.0318C56.8052 41.753 57.5602 40.2909 58.3654 39.2826C59.7243 37.5886 62.4119 33.8074 65.6129 31.3773C66.7906 30.4799 68.1797 29.8043 68.8743 30.248C69.438 30.611 69.6192 31.458 68.7132 33.1015C65.4518 39.0708 60.6504 46.0787 59.7747 47.7828C59.6136 48.0752 59.7545 48.3071 60.0666 48.3071C61.7778 48.3071 63.4689 48.3071 65.009 48.3071C65.2606 48.297 65.3814 48.176 65.5122 47.9945C68.0187 44.0721 70.3741 40.3312 72.8906 36.4694C73.0315 36.2374 73.1624 36.4189 73.1624 36.5198C73.2127 37.4172 73.4341 38.6473 73.9676 39.4439C74.9239 40.9262 76.2727 41.5715 77.7726 41.5816C78.9704 41.5917 79.5643 41.4102 80.8628 40.9362C81.9097 40.543 82.7552 40.0287 83.3894 39.575C83.7618 39.3128 83.8323 39.7565 83.8222 39.817C83.2384 42.9327 83.9531 46.6232 87.0534 48.1559C90.7576 49.9809 94.8243 47.4097 97.1596 45.0906C97.3911 44.8687 97.6327 44.8889 97.6629 45.3729C97.7132 46.2602 98.1058 47.3089 98.8406 48.045C100.803 50.0213 104.749 49.2348 108.725 46.1594C111.272 44.1831 113.94 41.4001 116.355 38.4558C116.446 38.3448 116.506 38.1633 116.335 37.9718C115.973 37.5886 115.439 37.1449 115.077 36.8021C114.906 36.6609 114.664 36.7013 114.523 36.8021C112.057 39.1515 109.833 41.8337 106.622 44.052C105.545 44.8082 103.813 45.4233 103.038 44.3746C102.736 43.9612 102.766 43.3966 103.068 42.6605C104.004 40.3212 118.832 17.6943 119.597 16.3633L119.607 16.4036ZM100.008 35.3703C100.038 35.5417 100.26 35.7131 100.491 35.7938C100.572 35.824 100.612 35.8744 100.522 36.066C99.8875 37.4172 99.3137 38.1936 98.5185 39.3733C97.7937 40.4623 96.9683 41.3093 95.9819 42.116C94.482 43.3562 92.4085 44.7074 90.6872 43.7999C89.9222 43.4066 89.59 42.3378 89.6101 41.4707C89.6504 39.0406 90.7275 36.5299 92.7205 34.0796C95.1565 31.0748 97.8441 29.522 99.6157 30.369C101.448 31.2361 100.864 33.3637 100.049 35.0274C99.9881 35.1585 99.9781 35.2594 100.018 35.3703H100.008ZM12.0419 48.2466C6.51572 48.287 1.6438 44.8586 1.08011 38.9398C0.768066 35.6526 1.69413 32.7285 3.55633 30.3186C5.19708 28.1708 7.98535 26.3861 10.3408 25.9525C11.1058 25.8113 12.1325 25.9021 12.5654 26.4062C13.2398 27.1827 13.0385 28.0397 12.3741 28.3826C10.5824 29.3001 8.40812 30.8832 7.34113 33.0209C6.47546 34.7754 6.29427 36.8928 7.62298 38.9095C9.83749 42.2672 16.0381 42.358 21.7858 37.0038C23.2151 35.6929 24.4834 34.4325 25.7819 32.9402C28.3186 30.0362 29.154 28.9775 32.5362 24.2988C32.5765 24.2484 32.5865 24.1678 32.5664 24.1375C32.5362 24.077 32.4859 24.0568 32.3953 24.0568C30.1405 24.1173 28.1877 24.7929 26.2752 26.2247C25.7216 26.6281 24.9364 26.5676 24.5841 26.0432C24.2016 25.4483 24.4734 24.6618 25.1075 24.2283C28.1776 22.0906 31.5296 21.7074 34.942 21.1327C34.942 21.1327 35.1735 21.1428 35.3748 20.8806C36.784 19.0757 37.841 17.4523 39.3408 15.6272C40.8507 13.7719 42.8035 12.0779 44.2832 10.7973C46.3568 9.00251 47.6855 8.4076 49.0444 7.66144C49.4067 7.47994 49.0041 7.24802 48.8934 7.24802C41.3338 5.82628 33.4723 3.98104 25.9631 6.76402C20.7691 8.7101 18.4841 12.8442 19.5813 15.597C20.3564 17.5531 22.9333 17.8657 25.339 16.6961C27.3422 15.718 29.1842 14.1349 30.4928 12.0981C31.2276 10.9687 32.7778 11.7855 31.9423 13.7417C29.7479 18.9144 25.5404 23.0183 20.4269 23.1897C16.0784 23.3308 13.27 20.1244 13.27 16.1616C13.3102 8.36727 21.9871 3.23488 31.0968 2.45847C42.0687 1.55097 52.4668 4.47512 63.3581 5.79603C71.7028 6.80436 79.7153 6.83461 88.1002 4.89862C89.0867 4.67679 89.7913 5.31203 89.7209 6.32036C89.6403 7.77235 88.523 9.17393 85.7549 10.6763C82.6143 12.4006 79.3227 12.9249 75.8902 12.9552C67.5858 13.0257 59.8451 9.77892 51.8427 8.03452C51.8528 8.38743 51.9434 8.80085 51.6514 9.02268C47.2124 12.2997 43.2061 15.6272 40.5185 20.2958C40.4279 20.4067 40.4782 20.5075 40.6292 20.4974C42.9645 20.3764 45.0582 20.3159 47.2325 20.1344C47.6049 20.1042 47.6251 20.0034 47.5949 19.7311C47.4036 18.1178 47.8666 16.2826 49.2859 15.0222C50.7354 13.7215 52.5473 13.5702 53.7452 14.508C55.1141 15.5768 54.9933 17.4926 54.2485 18.9345C53.4834 20.3966 52.2353 21.173 51.0274 21.5562C51.0274 21.5562 50.7757 21.6167 50.8059 21.8486C50.8562 22.2217 52.497 23.1292 52.6379 23.3712C52.7688 23.6031 52.6983 23.956 52.4567 24.2383C52.2856 24.44 52.0138 24.6215 51.6615 24.6114C51.3797 24.6114 51.2085 24.5106 50.8462 24.3089C50.1113 23.9056 49.1953 23.2502 48.5713 22.4738C48.3599 22.2116 48.2592 22.2015 47.7358 22.2419C45.3804 22.3729 41.7063 22.7359 39.22 23.0384C38.616 23.1191 38.5254 23.2199 38.4047 23.4317C34.4387 29.9858 30.2009 37.0542 25.5605 41.7732C20.5879 46.8551 16.4407 48.1861 12.0419 48.2164V48.2466ZM49.8396 19.1362C49.9 19.479 50.0308 19.5395 50.1818 19.5093C50.9368 19.358 51.7622 18.7329 52.2554 18.017C52.6983 17.3615 52.9097 16.4137 52.4668 16.0406C52.0742 15.6978 51.43 15.7986 50.9569 16.2221C50.0107 17.059 49.7188 18.2489 49.8496 19.1463" fill="white"/>
<defs>
<linearGradient id="paint0_linear_1298_20000" x1="68.402" y1="-3.41004" x2="264.199" y2="192.05" gradientUnits="userSpaceOnUse">
<stop stop-color="#00C9FA"/>
<stop offset="0.25" stop-color="#01C9F8"/>
<stop offset="0.34" stop-color="#06CCF1"/>
<stop offset="0.41" stop-color="#0ED2E5"/>
<stop offset="0.46" stop-color="#1BDAD4"/>
<stop offset="0.49" stop-color="#26E1C6"/>
<stop offset="0.51" stop-color="#3BDAB2"/>
<stop offset="0.57" stop-color="#6ECA83"/>
<stop offset="0.63" stop-color="#9BBC5B"/>
<stop offset="0.68" stop-color="#BFB13A"/>
<stop offset="0.74" stop-color="#DBA920"/>
<stop offset="0.8" stop-color="#EFA20E"/>
<stop offset="0.85" stop-color="#FB9F03"/>
<stop offset="0.91" stop-color="#FF9E00"/>
</linearGradient>
</defs>
</svg>
